<svg width="170" height="39" viewBox="0 0 170 39" fill="none" xmlns="http://www.w3.org/2000/svg">
<path d="M1.75439 19H5.67599V11.2858C5.67599 9.42819 6.57899 8.47359 8.04959 8.47359C9.52019 8.47359 10.3458 9.42819 10.3458 11.2858V19H14.2674V11.2858C14.2674 9.42819 15.1704 8.47359 16.641 8.47359C18.1116 8.47359 18.9372 9.42819 18.9372 11.2858V19H22.8588V9.99578C22.8588 6.66758 21.1044 4.91319 18.189 4.91319C16.3056 4.91319 14.8608 5.68719 13.6482 7.10619C12.9258 5.71299 11.5584 4.91319 9.7524 4.91319C7.7658 4.91319 6.57899 5.97099 5.67599 7.13199V5.17119H1.75439V19ZM26.6048 3.64899H30.7328V0.165985H26.6048V3.64899ZM26.708 19H30.6296V5.17119H26.708V19ZM34.1064 12.8854H42.0528V9.11859H34.1064V12.8854ZM50.211 19.258C53.204 19.258 55.5 17.8648 55.5 14.7946C55.5 12.2146 53.255 11.2858 51.32 10.6408C49.824 10.1248 48.508 9.76359 48.508 8.98959C48.508 8.39619 48.998 7.98339 49.953 7.98339C50.959 7.98339 52.326 8.47359 53.694 9.27339L55.19 6.56438C53.694 5.55818 51.785 4.96479 50.03 4.96479C47.244 4.96479 44.973 6.53858 44.973 9.35078C44.973 12.0856 47.166 12.9886 49.101 13.5562C50.624 14.0206 51.965 14.3044 51.965 15.1558C51.965 15.8266 51.449 16.2394 50.314 16.2394C49.024 16.2394 47.45 15.6718 45.954 14.5882L44.277 17.1682C46.109 18.613 48.276 19.258 50.211 19.258ZM58.569 19H62.49V11.2858C62.49 9.42819 63.445 8.47359 64.941 8.47359C66.438 8.47359 67.315 9.42819 67.315 11.2858V19H71.237V10.0474C71.237 6.87399 69.508 4.91319 66.541 4.91319C64.554 4.91319 63.393 5.97099 62.49 7.13199V0.165985H58.569V19ZM81.687 19.3096C85.995 19.3096 89.195 16.0846 89.195 12.1114C89.195 8.08659 86.021 4.91319 81.738 4.91319C77.43 4.91319 74.231 8.13819 74.231 12.1114C74.231 16.1362 77.404 19.3096 81.687 19.3096ZM81.738 15.9298C79.571 15.9298 78.101 14.1496 78.101 12.1114C78.101 10.0216 79.442 8.29299 81.687 8.29299C83.854 8.29299 85.325 10.0732 85.325 12.1114C85.325 14.2012 83.983 15.9298 81.738 15.9298ZM92.292 23.128H96.214V17.194C97.143 18.3034 98.433 19.258 100.522 19.258C103.799 19.258 106.818 16.7296 106.818 12.1114C106.818 7.44159 103.747 4.91319 100.522 4.91319C98.484 4.91319 97.168 5.86778 96.214 7.15778V5.17119H92.292V23.128ZM99.516 15.9298C97.684 15.9298 96.162 14.4076 96.162 12.1114C96.162 9.76359 97.684 8.24138 99.516 8.24138C101.348 8.24138 102.896 9.76358 102.896 12.0598C102.896 14.4334 101.348 15.9298 99.516 15.9298ZM109.553 19H113.733V14.872H109.553V19ZM123.372 19.3096C126.133 19.3096 127.681 18.2518 129.022 16.7812L126.726 14.4592C125.771 15.3622 124.868 15.9298 123.553 15.9298C121.411 15.9298 120.044 14.227 120.044 12.1114C120.044 10.0216 121.437 8.29299 123.398 8.29299C124.946 8.29299 125.771 8.86059 126.623 9.66039L128.919 7.33839C127.629 5.89359 126.029 4.91319 123.424 4.91319C119.192 4.91319 116.174 8.16399 116.174 12.1114C116.174 16.1104 119.218 19.3096 123.372 19.3096ZM138.249 19.3096C142.558 19.3096 145.757 16.0846 145.757 12.1114C145.757 8.08659 142.584 4.91319 138.301 4.91319C133.992 4.91319 130.793 8.13819 130.793 12.1114C130.793 16.1362 133.967 19.3096 138.249 19.3096ZM138.301 15.9298C136.134 15.9298 134.663 14.1496 134.663 12.1114C134.663 10.0216 136.005 8.29299 138.249 8.29299C140.417 8.29299 141.887 10.0732 141.887 12.1114C141.887 14.2012 140.546 15.9298 138.301 15.9298ZM148.855 19H152.776V11.2858C152.776 9.42819 153.679 8.47359 155.15 8.47359C156.621 8.47359 157.446 9.42819 157.446 11.2858V19H161.368V11.2858C161.368 9.42819 162.271 8.47359 163.741 8.47359C165.212 8.47359 166.038 9.42819 166.038 11.2858V19H169.959V9.99578C169.959 6.66758 168.205 4.91319 165.289 4.91319C163.406 4.91319 161.961 5.68719 160.749 7.10619C160.026 5.71299 158.659 4.91319 156.853 4.91319C154.866 4.91319 153.679 5.97099 152.776 7.13199V5.17119H148.855V19Z" fill="#3A3A44"/>
<path d="M0.468018 37H1.44002L2.43602 34.78H7.00802L7.99202 37H9.01202L5.18402 28.54H4.29602L0.468018 37ZM2.80802 33.928L4.72802 29.644L6.63602 33.928H2.80802ZM10.6925 37H13.8005C15.1685 37 16.0565 36.352 16.0565 35.308C16.0565 34.432 15.4325 33.976 14.6885 33.772C15.2045 33.556 15.7205 33.16 15.7205 32.344C15.7205 31.408 14.9285 30.796 13.6925 30.796H10.6925V37ZM11.6165 36.208V34.204H13.5605C14.5685 34.204 15.1085 34.564 15.1085 35.164C15.1085 35.812 14.5685 36.208 13.6805 36.208H11.6165ZM11.6165 33.46V31.588H13.5485C14.3525 31.588 14.7845 31.948 14.7845 32.464C14.7845 33.112 14.2685 33.46 13.5245 33.46H11.6165ZM19.4037 37H20.3397V31.612H22.5597V30.796H17.1837V31.612H19.4037V37ZM26.9157 37.144C28.7877 37.144 30.1677 35.656 30.1677 33.904C30.1677 32.128 28.7997 30.664 26.9397 30.664C25.0677 30.664 23.6997 32.152 23.6997 33.904C23.6997 35.68 25.0557 37.144 26.9157 37.144ZM26.9397 36.316C25.6317 36.316 24.6477 35.236 24.6477 33.904C24.6477 32.572 25.5717 31.48 26.9157 31.48C28.2237 31.48 29.2197 32.572 29.2197 33.904C29.2197 35.236 28.2837 36.316 26.9397 36.316ZM32.0215 38.92H32.9455V35.812C33.4255 36.508 34.1695 37.132 35.3215 37.132C36.8215 37.132 38.2855 35.932 38.2855 33.904C38.2855 31.84 36.8095 30.664 35.3215 30.664C34.1815 30.664 33.4495 31.3 32.9455 32.044V30.796H32.0215V38.92ZM35.1535 36.304C34.0015 36.304 32.9095 35.344 32.9095 33.904C32.9095 32.464 34.0015 31.492 35.1535 31.492C36.3295 31.492 37.3375 32.428 37.3375 33.892C37.3375 35.416 36.3535 36.304 35.1535 36.304ZM40.1703 37H41.0583L44.754 32.092V37H45.678V30.796H44.778L41.0943 35.704V30.796H40.1703V37ZM49.889 37.144C51.425 37.144 52.349 36.268 52.349 35.272C52.349 34.456 51.881 33.988 51.197 33.748C51.725 33.532 52.193 33.088 52.193 32.32C52.193 31.36 51.341 30.664 49.949 30.664C49.037 30.664 48.197 30.94 47.549 31.444L48.005 32.092C48.545 31.66 49.277 31.468 49.889 31.468C50.657 31.468 51.233 31.816 51.233 32.392C51.233 33.04 50.669 33.46 49.853 33.46H49.013V34.216H49.841C50.849 34.216 51.401 34.612 51.401 35.236C51.401 35.956 50.669 36.34 49.865 36.34C49.121 36.34 48.413 36.064 47.789 35.536L47.321 36.22C48.077 36.832 48.905 37.144 49.889 37.144ZM57.073 37.144C58.945 37.144 60.325 35.656 60.325 33.904C60.325 32.128 58.957 30.664 57.097 30.664C55.225 30.664 53.857 32.152 53.857 33.904C53.857 35.68 55.213 37.144 57.073 37.144ZM57.097 36.316C55.789 36.316 54.805 35.236 54.805 33.904C54.805 32.572 55.729 31.48 57.073 31.48C58.381 31.48 59.377 32.572 59.377 33.904C59.377 35.236 58.441 36.316 57.097 36.316ZM62.179 37H65.287C66.655 37 67.543 36.352 67.543 35.308C67.543 34.432 66.919 33.976 66.175 33.772C66.691 33.556 67.207 33.16 67.207 32.344C67.207 31.408 66.415 30.796 65.179 30.796H62.179V37ZM63.103 36.208V34.204H65.047C66.055 34.204 66.595 34.564 66.595 35.164C66.595 35.812 66.055 36.208 65.167 36.208H63.103ZM63.103 33.46V31.588H65.035C65.839 31.588 66.271 31.948 66.271 32.464C66.271 33.112 65.755 33.46 65.011 33.46H63.103ZM71.238 37.132C72.33 37.132 73.038 36.628 73.47 36.076V37H74.382V33.208C74.382 32.416 74.166 31.816 73.734 31.384C73.29 30.94 72.606 30.7 71.73 30.7C70.818 30.7 70.158 30.916 69.474 31.228L69.75 31.984C70.326 31.72 70.902 31.54 71.634 31.54C72.798 31.54 73.47 32.116 73.47 33.22V33.412C72.918 33.256 72.366 33.148 71.574 33.148C70.002 33.148 68.922 33.844 68.922 35.176C68.922 36.472 70.074 37.132 71.238 37.132ZM71.418 36.388C70.578 36.388 69.858 35.932 69.858 35.152C69.858 34.384 70.518 33.88 71.67 33.88C72.426 33.88 73.026 34.012 73.482 34.144V34.72C73.482 35.704 72.558 36.388 71.418 36.388ZM76.52 37H77.444V34.288H81.02V37H81.944V30.796H81.02V33.472H77.444V30.796H76.52V37ZM84.188 37H85.112V34.288H88.688V37H89.612V30.796H88.688V33.472H85.112V30.796H84.188V37ZM91.856 37H94.544C95.96 37 96.884 36.22 96.884 34.984C96.884 33.676 95.78 33.124 94.436 33.124H92.78V30.796H91.856V37ZM92.78 36.184V33.916H94.424C95.372 33.916 95.948 34.288 95.948 35.008C95.948 35.788 95.384 36.184 94.46 36.184H92.78ZM98 37H98.924V30.796H98V37ZM103.877 37.144C105.053 37.144 105.809 36.676 106.433 35.98L105.857 35.464C105.353 35.992 104.753 36.34 103.901 36.34C102.809 36.34 101.849 35.584 101.717 34.276H106.637C106.649 34.132 106.649 34.036 106.649 33.952C106.649 32.128 105.593 30.664 103.757 30.664C102.041 30.664 100.781 32.104 100.781 33.904C100.781 35.836 102.173 37.144 103.877 37.144ZM101.717 33.532C101.849 32.332 102.665 31.444 103.733 31.444C104.957 31.444 105.605 32.404 105.713 33.532H101.717ZM112.224 37H113.124V32.272L115.392 35.416L117.684 32.272V37H118.62V30.796H117.732L115.416 34.06L113.1 30.796H112.224V37ZM122.761 37.132C123.853 37.132 124.561 36.628 124.993 36.076V37H125.905V33.208C125.905 32.416 125.689 31.816 125.257 31.384C124.813 30.94 124.129 30.7 123.253 30.7C122.341 30.7 121.681 30.916 120.997 31.228L121.273 31.984C121.849 31.72 122.425 31.54 123.157 31.54C124.321 31.54 124.993 32.116 124.993 33.22V33.412C124.441 33.256 123.889 33.148 123.097 33.148C121.525 33.148 120.445 33.844 120.445 35.176C120.445 36.472 121.597 37.132 122.761 37.132ZM122.941 36.388C122.101 36.388 121.381 35.932 121.381 35.152C121.381 34.384 122.041 33.88 123.193 33.88C123.949 33.88 124.549 34.012 125.005 34.144V34.72C125.005 35.704 124.081 36.388 122.941 36.388ZM128.09 37H129.014V31.612H132.302V30.796H128.09V37ZM135.721 37.132C136.813 37.132 137.521 36.628 137.953 36.076V37H138.865V33.208C138.865 32.416 138.649 31.816 138.217 31.384C137.773 30.94 137.089 30.7 136.213 30.7C135.301 30.7 134.641 30.916 133.957 31.228L134.233 31.984C134.809 31.72 135.385 31.54 136.117 31.54C137.281 31.54 137.953 32.116 137.953 33.22V33.412C137.401 33.256 136.849 33.148 136.057 33.148C134.485 33.148 133.405 33.844 133.405 35.176C133.405 36.472 134.557 37.132 135.721 37.132ZM135.901 36.388C135.061 36.388 134.341 35.932 134.341 35.152C134.341 34.384 135.001 33.88 136.153 33.88C136.909 33.88 137.509 34.012 137.965 34.144V34.72C137.965 35.704 137.041 36.388 135.901 36.388ZM143.018 37.144C144.554 37.144 145.478 36.268 145.478 35.272C145.478 34.456 145.01 33.988 144.326 33.748C144.854 33.532 145.322 33.088 145.322 32.32C145.322 31.36 144.47 30.664 143.078 30.664C142.166 30.664 141.326 30.94 140.678 31.444L141.134 32.092C141.674 31.66 142.406 31.468 143.018 31.468C143.786 31.468 144.362 31.816 144.362 32.392C144.362 33.04 143.798 33.46 142.982 33.46H142.142V34.216H142.97C143.978 34.216 144.53 34.612 144.53 35.236C144.53 35.956 143.798 36.34 142.994 36.34C142.25 36.34 141.542 36.064 140.918 35.536L140.45 36.22C141.206 36.832 142.034 37.144 143.018 37.144ZM147.419 37H148.307L152.003 32.092V37H152.927V30.796H152.027L148.343 35.704V30.796H147.419V37ZM155.217 37H156.141V34.288H159.717V37H160.641V30.796H159.717V33.472H156.141V30.796H155.217V37ZM162.933 37H165.621C167.037 37 167.961 36.22 167.961 34.984C167.961 33.676 166.857 33.124 165.513 33.124H163.857V30.796H162.933V37ZM163.857 36.184V33.916H165.501C166.449 33.916 167.025 34.288 167.025 35.008C167.025 35.788 166.461 36.184 165.537 36.184H163.857ZM169.077 37H170.001V30.796H169.077V37Z" fill="#3A3A44"/>
</svg>
